<?xml version="1.0" encoding="utf-8"?>
<!-- Generator: Adobe Illustrator 25.2.2, SVG Export Plug-In . SVG Version: 6.00 Build 0)  -->
<svg version="1.1" id="Layer_1" xmlns="http://www.w3.org/2000/svg" xmlns:xlink="http://www.w3.org/1999/xlink" x="0px" y="0px"
	 viewBox="0 0 576 512" style="enable-background:new 0 0 576 512;" xml:space="preserve">
<style type="text/css">
	.st0{fill:#FFFFFF;}
</style>
<path d="M528,224h-48v-48c0-26.5-21.5-48-48-48H272l-64-64H48C21.5,64,0,85.5,0,112v288c0,26.5,21.5,48,48,48h385.1
	c28.1,0,54.1-14.7,68.6-38.8l67.5-112.5C588.2,264.8,565.3,224,528,224z M541.7,280.2l-67.5,112.5c-8.7,14.5-24.3,23.3-41.2,23.3
	H44.8l4.3-7.1c-12.3-4.3-15-18.6-15.1-31.8l-2,3.3V112c0-8.8,7.2-16,16-16h146.7l64,64H432c8.8,0,16,7.2,16,16v48h-7
	c0,10.6-0.1,21.4-0.4,32H528C540.4,256,548.1,269.6,541.7,280.2L541.7,280.2z"/>
<path id="White_behind_file" class="st0" d="M343.7,34.1H196.2c-13.8,0-25.1,11.3-25.1,25.1V347c0,13.8,11.3,25.1,25.1,25.1h183.6
	c13.8,0,25.1-11.3,25.1-25.1V95.4L343.7,34.1z"/>
<path d="M415.6,89.8l-60.2-60.2c-6.5-6.5-15.2-10.1-24.3-10.1H184.7c-19,0.1-34.4,15.5-34.4,34.5v298.5c0,19,15.4,34.4,34.4,34.4
	h206.6c19,0,34.4-15.4,34.4-34.4V114.1C425.8,105,422.1,96.2,415.6,89.8z M399.4,106c1.5,1.5,2.5,3.3,3,5.3h-68.5V42.8
	c2,0.5,3.8,1.5,5.3,3L399.4,106z M391.3,363.9H184.7c-6.3,0-11.5-5.2-11.5-11.5V54c0-6.3,5.2-11.5,11.5-11.5H311v74.6
	c0,9.5,7.7,17.2,17.2,17.2h74.6v218.1C402.8,358.7,397.6,363.9,391.3,363.9z M356.9,188.8v5.7c0,4.7-3.9,8.6-8.6,8.6H227.7
	c-4.7,0-8.6-3.9-8.6-8.6v-5.7c0-4.7,3.9-8.6,8.6-8.6h120.5C353,180.2,356.9,184.1,356.9,188.8z M356.9,234.7v5.7
	c0,4.7-3.9,8.6-8.6,8.6H227.7c-4.7,0-8.6-3.9-8.6-8.6v-5.7c0-4.7,3.9-8.6,8.6-8.6h120.5C353,226.1,356.9,230,356.9,234.7z
	 M356.9,280.7v5.7c0,4.7-3.9,8.6-8.6,8.6H227.7c-4.7,0-8.6-3.9-8.6-8.6v-5.7c0-4.7,3.9-8.6,8.6-8.6h120.5
	C353,272.1,356.9,275.9,356.9,280.7z"/>
<g id="White_front_of_folder">
	<polyline class="st0" points="437,256 437.5,403 49,408.9 42,392 135.2,245 437.3,245 437.3,256 	"/>
</g>
<path d="M168,256h272.6c0.3-10.6,0.4-21.4,0.4-32H171.2c-28.1,0-54.1,14.7-68.6,38.8L34,377.1c0.1,13.1,2.8,27.4,15.1,31.8
	l77.7-129.6C135.5,264.8,151.1,256,168,256z"/>
</svg>
